<mxfile host="app.diagrams.net" modified="2022-10-04T17:54:33.949Z" agent="5.0 (Windows NT 10.0; Win64; x64) AppleWebKit/537.36 (KHTML, like Gecko) Chrome/105.0.0.0 Safari/537.36" etag="_x4gVn5FGz1Go5t1Em4p" version="20.4.0" type="github">
  <diagram id="gJx1tpB_rzmkyhL5zFff" name="Page-1">
    <mxGraphModel dx="1888" dy="1679" grid="1" gridSize="10" guides="1" tooltips="1" connect="1" arrows="1" fold="1" page="1" pageScale="1" pageWidth="850" pageHeight="1100" math="0" shadow="0">
      <root>
        <mxCell id="0" />
        <mxCell id="1" parent="0" />
        <mxCell id="bEU1iKi3ngNgIoyV5gFX-1" value="Main" style="swimlane;html=1;fontStyle=1;align=center;verticalAlign=top;childLayout=stackLayout;horizontal=1;startSize=26;horizontalStack=0;resizeParent=1;resizeLast=0;collapsible=1;marginBottom=0;swimlaneFillColor=#ffffff;rounded=0;shadow=0;comic=0;labelBackgroundColor=none;strokeWidth=1;fillColor=none;fontFamily=Verdana;fontSize=12;strokeColor=#006658;fontColor=#5C5C5C;" vertex="1" parent="1">
          <mxGeometry x="170" y="-30" width="160" height="70" as="geometry" />
        </mxCell>
        <mxCell id="bEU1iKi3ngNgIoyV5gFX-2" value="" style="line;html=1;strokeWidth=1;fillColor=none;align=left;verticalAlign=middle;spacingTop=-1;spacingLeft=3;spacingRight=3;rotatable=0;labelPosition=right;points=[];portConstraint=eastwest;strokeColor=#006658;fontColor=#5C5C5C;" vertex="1" parent="bEU1iKi3ngNgIoyV5gFX-1">
          <mxGeometry y="26" width="160" height="8" as="geometry" />
        </mxCell>
        <mxCell id="bEU1iKi3ngNgIoyV5gFX-3" value="onCreate" style="text;html=1;strokeColor=none;fillColor=none;align=left;verticalAlign=top;spacingLeft=4;spacingRight=4;whiteSpace=wrap;overflow=hidden;rotatable=0;points=[[0,0.5],[1,0.5]];portConstraint=eastwest;fontStyle=1;fontColor=#5C5C5C;" vertex="1" parent="bEU1iKi3ngNgIoyV5gFX-1">
          <mxGeometry y="34" width="160" height="26" as="geometry" />
        </mxCell>
        <mxCell id="bEU1iKi3ngNgIoyV5gFX-4" value="лил░ UI&lt;br&gt;&lt;br&gt;GameFragment&lt;br&gt;&lt;br&gt;" style="swimlane;html=1;fontStyle=1;align=center;verticalAlign=top;childLayout=stackLayout;horizontal=1;startSize=60;horizontalStack=0;resizeParent=1;resizeLast=0;collapsible=1;marginBottom=0;swimlaneFillColor=#ffffff;rounded=0;shadow=0;comic=0;labelBackgroundColor=none;strokeWidth=1;fillColor=default;fontFamily=Verdana;fontSize=12;strokeColor=#006658;fontColor=#5C5C5C;" vertex="1" parent="1">
          <mxGeometry x="460" y="-60" width="340" height="460" as="geometry">
            <mxRectangle x="480" y="-50" width="140" height="70" as="alternateBounds" />
          </mxGeometry>
        </mxCell>
        <mxCell id="bEU1iKi3ngNgIoyV5gFX-5" value="&lt;span style=&quot;color: rgba(0, 0, 0, 0); font-family: monospace; font-size: 0px;&quot;&gt;%3CmxGraphModel%3E%3Croot%3E%3CmxCell%20id%3D%220%22%2F%3E%3CmxCell%20id%3D%221%22%20parent%3D%220%22%2F%3E%3CmxCell%20id%3D%222%22%20value%3D%22%26lt%3Bpre%20style%3D%26quot%3Bbackground-color%3A%23ffffff%3Bcolor%3A%23000000%3Bfont-family%3A&#39;JetBrains%20Mono&#39;%2Cmonospace%3Bfont-size%3A9%2C8pt%3B%26quot%3B%26gt%3B%26lt%3Bspan%20style%3D%26quot%3Bcolor%3A%23000080%3Bfont-weight%3Abold%3B%26quot%3B%26gt%3Bprivate%20lateinit%20var%20%26lt%3B%2Fspan%26gt%3B%26lt%3Bspan%20style%3D%26quot%3Bcolor%3A%23660e7a%3Bfont-weight%3Abold%3B%26quot%3B%26gt%3Bbinding%26lt%3B%2Fspan%26gt%3B%3A%20GameFragmentBinding%26lt%3B%2Fpre%26gt%3B%22%20style%3D%22text%3Bhtml%3D1%3BstrokeColor%3Dnone%3BfillColor%3Dnone%3Balign%3Dleft%3BverticalAlign%3Dtop%3BspacingLeft%3D4%3BspacingRight%3D4%3BwhiteSpace%3Dwrap%3Boverflow%3Dhidden%3Brotatable%3D0%3Bpoints%3D%5B%5B0%2C0.5%5D%2C%5B1%2C0.5%5D%5D%3BportConstraint%3Deastwest%3B%22%20vertex%3D%221%22%20parent%3D%221%22%3E%3CmxGeometry%20x%3D%22320%22%20y%3D%2296%22%20width%3D%22160%22%20height%3D%2234%22%20as%3D%22geometry%22%2F%3E%3C%2FmxCell%3E%3C%2Froot%3E%3C%2FmxGraphModel%3E&lt;/span&gt;&lt;span style=&quot;color: rgba(0, 0, 0, 0); font-family: monospace; font-size: 0px;&quot;&gt;%3CmxGraphModel%3E%3Croot%3E%3CmxCell%20id%3D%220%22%2F%3E%3CmxCell%20id%3D%221%22%20parent%3D%220%22%2F%3E%3CmxCell%20id%3D%222%22%20value%3D%22%26lt%3Bpre%20style%3D%26quot%3Bbackground-color%3A%23ffffff%3Bcolor%3A%23000000%3Bfont-family%3A&#39;JetBrains%20Mono&#39;%2Cmonospace%3Bfont-size%3A9%2C8pt%3B%26quot%3B%26gt%3B%26lt%3Bspan%20style%3D%26quot%3Bcolor%3A%23000080%3Bfont-weight%3Abold%3B%26quot%3B%26gt%3Bprivate%20lateinit%20var%20%26lt%3B%2Fspan%26gt%3B%26lt%3Bspan%20style%3D%26quot%3Bcolor%3A%23660e7a%3Bfont-weight%3Abold%3B%26quot%3B%26gt%3Bbinding%26lt%3B%2Fspan%26gt%3B%3A%20GameFragmentBinding%26lt%3B%2Fpre%26gt%3B%22%20style%3D%22text%3Bhtml%3D1%3BstrokeColor%3Dnone%3BfillColor%3Dnone%3Balign%3Dleft%3BverticalAlign%3Dtop%3BspacingLeft%3D4%3BspacingRight%3D4%3BwhiteSpace%3Dwrap%3Boverflow%3Dhidden%3Brotatable%3D0%3Bpoints%3D%5B%5B0%2C0.5%5D%2C%5B1%2C0.5%5D%5D%3BportConstraint%3Deastwest%3B%22%20vertex%3D%221%22%20parent%3D%221%22%3E%3CmxGeometry%20x%3D%22320%22%20y%3D%2296%22%20width%3D%22160%22%20height%3D%2234%22%20as%3D%22geometry%22%2F%3E%3C%2FmxCell%3E%3C%2Froot%3E%3C%2FmxGraphModel%3E&lt;/span&gt;&lt;span style=&quot;color: rgba(0, 0, 0, 0); font-family: monospace; font-size: 0px;&quot;&gt;%3CmxGraphModel%3E%3Croot%3E%3CmxCell%20id%3D%220%22%2F%3E%3CmxCell%20id%3D%221%22%20parent%3D%220%22%2F%3E%3CmxCell%20id%3D%222%22%20value%3D%22%26lt%3Bpre%20style%3D%26quot%3Bbackground-color%3A%23ffffff%3Bcolor%3A%23000000%3Bfont-family%3A&#39;JetBrains%20Mono&#39;%2Cmonospace%3Bfont-size%3A9%2C8pt%3B%26quot%3B%26gt%3B%26lt%3Bspan%20style%3D%26quot%3Bcolor%3A%23000080%3Bfont-weight%3Abold%3B%26quot%3B%26gt%3Bprivate%20lateinit%20var%20%26lt%3B%2Fspan%26gt%3B%26lt%3Bspan%20style%3D%26quot%3Bcolor%3A%23660e7a%3Bfont-weight%3Abold%3B%26quot%3B%26gt%3Bbinding%26lt%3B%2Fspan%26gt%3B%3A%20GameFragmentBinding%26lt%3B%2Fpre%26gt%3B%22%20style%3D%22text%3Bhtml%3D1%3BstrokeColor%3Dnone%3BfillColor%3Dnone%3Balign%3Dleft%3BverticalAlign%3Dtop%3BspacingLeft%3D4%3BspacingRight%3D4%3BwhiteSpace%3Dwrap%3Boverflow%3Dhidden%3Brotatable%3D0%3Bpoints%3D%5B%5B0%2C0.5%5D%2C%5B1%2C0.5%5D%5D%3BportConstraint%3Deastwest%3B%22%20vertex%3D%221%22%20parent%3D%221%22%3E%3CmxGeometry%20x%3D%22320%22%20y%3D%2296%22%20width%3D%22160%22%20height%3D%2234%22%20as%3D%22geometry%22%2F%3E%3C%2FmxCell%3E%3C%2Froot%3E%3C%2FmxGraphModel%3E&lt;/span&gt;" style="text;html=1;strokeColor=none;fillColor=none;align=left;verticalAlign=top;spacingLeft=4;spacingRight=4;whiteSpace=wrap;overflow=hidden;rotatable=0;points=[[0,0.5],[1,0.5]];portConstraint=eastwest;fontColor=#5C5C5C;" vertex="1" parent="bEU1iKi3ngNgIoyV5gFX-4">
          <mxGeometry y="60" width="340" height="26" as="geometry" />
        </mxCell>
        <mxCell id="bEU1iKi3ngNgIoyV5gFX-6" value="&lt;pre style=&quot;background-color: rgb(255, 255, 255); font-family: &amp;quot;JetBrains Mono&amp;quot;, monospace;&quot;&gt;&lt;span style=&quot;color:#000080;font-weight:bold;&quot;&gt;private val &lt;/span&gt;&lt;span style=&quot;color:#660e7a;font-weight:bold;&quot;&gt;viewModel&lt;/span&gt;: &lt;font color=&quot;#ff0000&quot;&gt;GameViewModel &lt;/font&gt;&lt;span style=&quot;color:#000080;font-weight:bold;&quot;&gt;by &lt;/span&gt;&lt;span style=&quot;font-style:italic;&quot;&gt;viewModels&lt;/span&gt;()&lt;/pre&gt;" style="text;html=1;strokeColor=none;fillColor=none;align=left;verticalAlign=top;spacingLeft=4;spacingRight=4;whiteSpace=wrap;overflow=hidden;rotatable=0;points=[[0,0.5],[1,0.5]];portConstraint=eastwest;fontColor=#5C5C5C;" vertex="1" parent="bEU1iKi3ngNgIoyV5gFX-4">
          <mxGeometry y="86" width="340" height="40" as="geometry" />
        </mxCell>
        <mxCell id="bEU1iKi3ngNgIoyV5gFX-7" value="&lt;pre style=&quot;background-color:#ffffff;color:#000000;font-family:&#39;JetBrains Mono&#39;,monospace;font-size:9,8pt;&quot;&gt;&lt;span style=&quot;color:#000080;font-weight:bold;&quot;&gt;private lateinit var &lt;/span&gt;&lt;span style=&quot;color:#660e7a;font-weight:bold;&quot;&gt;binding&lt;/span&gt;: GameFragmentBinding&lt;/pre&gt;" style="text;html=1;strokeColor=none;fillColor=none;align=left;verticalAlign=top;spacingLeft=4;spacingRight=4;whiteSpace=wrap;overflow=hidden;rotatable=0;points=[[0,0.5],[1,0.5]];portConstraint=eastwest;fontColor=#5C5C5C;" vertex="1" parent="bEU1iKi3ngNgIoyV5gFX-4">
          <mxGeometry y="126" width="340" height="34" as="geometry" />
        </mxCell>
        <mxCell id="bEU1iKi3ngNgIoyV5gFX-8" value="" style="line;html=1;strokeWidth=1;fillColor=none;align=left;verticalAlign=middle;spacingTop=-1;spacingLeft=3;spacingRight=3;rotatable=0;labelPosition=right;points=[];portConstraint=eastwest;strokeColor=#006658;fontColor=#5C5C5C;" vertex="1" parent="bEU1iKi3ngNgIoyV5gFX-4">
          <mxGeometry y="160" width="340" height="34" as="geometry" />
        </mxCell>
        <mxCell id="bEU1iKi3ngNgIoyV5gFX-9" value="&lt;pre style=&quot;background-color: rgb(255, 255, 255); font-family: &amp;quot;JetBrains Mono&amp;quot;, monospace;&quot;&gt;&lt;span style=&quot;color: rgb(0, 0, 0);&quot;&gt;&lt;span style=&quot;color:#000080;font-weight:bold;&quot;&gt;override fun &lt;/span&gt;onCreateView(&lt;br&gt;    inflater: LayoutInflater, &lt;/span&gt;&lt;font color=&quot;#0000ff&quot;&gt;container: ViewGroup?&lt;/font&gt;&lt;font color=&quot;#000000&quot;&gt;,&lt;br&gt;    &lt;/font&gt;&lt;font color=&quot;#ff66ff&quot;&gt;savedInstanceState: Bundle?&lt;/font&gt;&lt;font color=&quot;#000000&quot;&gt;&lt;br&gt;): View&lt;/font&gt;&lt;/pre&gt;" style="text;html=1;strokeColor=#006658;fillColor=none;align=left;verticalAlign=top;spacingLeft=4;spacingRight=4;whiteSpace=wrap;overflow=hidden;rotatable=0;points=[[0,0.5],[1,0.5]];portConstraint=eastwest;fontColor=#5C5C5C;dashed=1;" vertex="1" parent="bEU1iKi3ngNgIoyV5gFX-4">
          <mxGeometry y="194" width="340" height="100" as="geometry" />
        </mxCell>
        <mxCell id="bEU1iKi3ngNgIoyV5gFX-10" value="&lt;pre style=&quot;background-color:#ffffff;color:#000000;font-family:&#39;JetBrains Mono&#39;,monospace;font-size:9,8pt;&quot;&gt;&lt;span style=&quot;color:#000080;font-weight:bold;&quot;&gt;override fun &lt;/span&gt;onViewCreated(view: View,&lt;/pre&gt;&lt;pre style=&quot;background-color: rgb(255, 255, 255); font-family: &amp;quot;JetBrains Mono&amp;quot;, monospace;&quot;&gt;&lt;span style=&quot;color: rgb(0, 0, 0);&quot;&gt; &lt;/span&gt;&lt;font color=&quot;#ff66ff&quot;&gt;savedInstanceState: Bundle?&lt;/font&gt;&lt;font color=&quot;#000000&quot;&gt;)&lt;/font&gt;&lt;/pre&gt;&lt;pre style=&quot;background-color: rgb(255, 255, 255); font-family: &amp;quot;JetBrains Mono&amp;quot;, monospace;&quot;&gt;&lt;font color=&quot;#00cc00&quot;&gt;updateNextWordOnScreen() лЙл▒лйлЙл▓лИЛѓЛї Лѓлхл║ЛЂЛѓлЙл▓лЙлх л┐лЙл╗лх&lt;/font&gt;&lt;/pre&gt;&lt;pre style=&quot;background-color: rgb(255, 255, 255); font-family: &amp;quot;JetBrains Mono&amp;quot;, monospace;&quot;&gt;binding&lt;span style=&quot;color: rgb(0, 0, 0);&quot;&gt;.&lt;/span&gt;&lt;span style=&quot;color: rgb(102, 14, 122); font-weight: bold;&quot;&gt;submit&lt;/span&gt;&lt;span style=&quot;color: rgb(0, 0, 0);&quot;&gt;.setOnClickListener &lt;/span&gt;&lt;span style=&quot;color: rgb(0, 0, 0); font-weight: bold;&quot;&gt;{ &lt;/span&gt;&lt;span style=&quot;color: rgb(0, 0, 0);&quot;&gt;onSubmitWord() &lt;/span&gt;&lt;span style=&quot;color: rgb(0, 0, 0); font-weight: bold;&quot;&gt;}&lt;/span&gt;&lt;/pre&gt;&lt;pre style=&quot;background-color: rgb(255, 255, 255); font-family: &amp;quot;JetBrains Mono&amp;quot;, monospace;&quot;&gt;&lt;pre style=&quot;color: rgb(0, 0, 0); font-family: &amp;quot;JetBrains Mono&amp;quot;, monospace;&quot;&gt;&lt;span style=&quot;color:#660e7a;font-weight:bold;&quot;&gt;binding&lt;/span&gt;.&lt;span style=&quot;color:#660e7a;font-weight:bold;&quot;&gt;skip&lt;/span&gt;.setOnClickListener &lt;span style=&quot;font-weight:bold;&quot;&gt;{ &lt;/span&gt;onSkipWord() &lt;span style=&quot;font-weight:bold;&quot;&gt;}&lt;/span&gt;&lt;/pre&gt;&lt;/pre&gt;" style="text;html=1;strokeColor=#006658;fillColor=none;align=left;verticalAlign=top;spacingLeft=4;spacingRight=4;whiteSpace=wrap;overflow=hidden;rotatable=0;points=[[0,0.5],[1,0.5]];portConstraint=eastwest;fontColor=#5C5C5C;dashed=1;" vertex="1" parent="bEU1iKi3ngNgIoyV5gFX-4">
          <mxGeometry y="294" width="340" height="166" as="geometry" />
        </mxCell>
        <mxCell id="bEU1iKi3ngNgIoyV5gFX-11" value="&lt;font color=&quot;#ff0000&quot;&gt;&lt;br&gt;лил░ л╗лЙл│лИл║ЛЃ лИл│ЛђЛІ&lt;br&gt;&lt;br&gt;GameViewModel&lt;/font&gt;" style="swimlane;html=1;fontStyle=1;align=center;verticalAlign=top;childLayout=stackLayout;horizontal=1;startSize=80;horizontalStack=0;resizeParent=1;resizeLast=0;collapsible=1;marginBottom=0;swimlaneFillColor=#ffffff;rounded=0;shadow=0;comic=0;labelBackgroundColor=none;strokeWidth=1;fillColor=#f8cecc;fontFamily=Verdana;fontSize=12;strokeColor=#b85450;" vertex="1" parent="1">
          <mxGeometry x="160" y="125" width="230" height="310" as="geometry">
            <mxRectangle x="240" y="150" width="150" height="70" as="alternateBounds" />
          </mxGeometry>
        </mxCell>
        <mxCell id="bEU1iKi3ngNgIoyV5gFX-12" value="ЛЂЛЄлхЛѓЛЄлИл║ ЛЂл╗лЙл▓&lt;br&gt;" style="text;html=1;strokeColor=none;fillColor=none;align=left;verticalAlign=top;spacingLeft=4;spacingRight=4;whiteSpace=wrap;overflow=hidden;rotatable=0;points=[[0,0.5],[1,0.5]];portConstraint=eastwest;fontColor=#5C5C5C;" vertex="1" parent="bEU1iKi3ngNgIoyV5gFX-11">
          <mxGeometry y="80" width="230" height="26" as="geometry" />
        </mxCell>
        <mxCell id="bEU1iKi3ngNgIoyV5gFX-13" value="ЛЂл┐лИЛЂлЙл║ ЛЂл╗лЙл▓" style="text;html=1;strokeColor=none;fillColor=none;align=left;verticalAlign=top;spacingLeft=4;spacingRight=4;whiteSpace=wrap;overflow=hidden;rotatable=0;points=[[0,0.5],[1,0.5]];portConstraint=eastwest;fontColor=#5C5C5C;" vertex="1" parent="bEU1iKi3ngNgIoyV5gFX-11">
          <mxGeometry y="106" width="230" height="26" as="geometry" />
        </mxCell>
        <mxCell id="bEU1iKi3ngNgIoyV5gFX-14" value="лил░л│л░л┤л░лйлйлЙлх Лѓлхл║ЛЃЛЅлхлх ЛЂл╗лЙл▓лЙ" style="text;html=1;strokeColor=none;fillColor=none;align=left;verticalAlign=top;spacingLeft=4;spacingRight=4;whiteSpace=wrap;overflow=hidden;rotatable=0;points=[[0,0.5],[1,0.5]];portConstraint=eastwest;fontColor=#5C5C5C;" vertex="1" parent="bEU1iKi3ngNgIoyV5gFX-11">
          <mxGeometry y="132" width="230" height="26" as="geometry" />
        </mxCell>
        <mxCell id="bEU1iKi3ngNgIoyV5gFX-15" value="лЙЛЄл║лИ" style="text;html=1;strokeColor=none;fillColor=none;align=left;verticalAlign=top;spacingLeft=4;spacingRight=4;whiteSpace=wrap;overflow=hidden;rotatable=0;points=[[0,0.5],[1,0.5]];portConstraint=eastwest;fontColor=#5C5C5C;" vertex="1" parent="bEU1iKi3ngNgIoyV5gFX-11">
          <mxGeometry y="158" width="230" height="26" as="geometry" />
        </mxCell>
        <mxCell id="bEU1iKi3ngNgIoyV5gFX-16" value="ЛЂл╗лЙл▓лЙ, л║лЙЛѓлЙЛђлЙлх л┐лИЛѕлхЛѓ ЛЄлхл╗лЙл▓лхл║" style="text;html=1;strokeColor=none;fillColor=none;align=left;verticalAlign=top;spacingLeft=4;spacingRight=4;whiteSpace=wrap;overflow=hidden;rotatable=0;points=[[0,0.5],[1,0.5]];portConstraint=eastwest;fontColor=#5C5C5C;" vertex="1" parent="bEU1iKi3ngNgIoyV5gFX-11">
          <mxGeometry y="184" width="230" height="26" as="geometry" />
        </mxCell>
        <mxCell id="bEU1iKi3ngNgIoyV5gFX-17" value="" style="line;html=1;strokeWidth=1;fillColor=none;align=left;verticalAlign=middle;spacingTop=-1;spacingLeft=3;spacingRight=3;rotatable=0;labelPosition=right;points=[];portConstraint=eastwest;strokeColor=#006658;fontColor=#5C5C5C;" vertex="1" parent="bEU1iKi3ngNgIoyV5gFX-11">
          <mxGeometry y="210" width="230" height="8" as="geometry" />
        </mxCell>
        <mxCell id="bEU1iKi3ngNgIoyV5gFX-18" value="+ method(type): type" style="text;html=1;strokeColor=none;fillColor=none;align=left;verticalAlign=top;spacingLeft=4;spacingRight=4;whiteSpace=wrap;overflow=hidden;rotatable=0;points=[[0,0.5],[1,0.5]];portConstraint=eastwest;fontColor=#5C5C5C;" vertex="1" parent="bEU1iKi3ngNgIoyV5gFX-11">
          <mxGeometry y="218" width="230" height="26" as="geometry" />
        </mxCell>
        <mxCell id="bEU1iKi3ngNgIoyV5gFX-19" value="+ method(type): type" style="text;html=1;strokeColor=none;fillColor=none;align=left;verticalAlign=top;spacingLeft=4;spacingRight=4;whiteSpace=wrap;overflow=hidden;rotatable=0;points=[[0,0.5],[1,0.5]];portConstraint=eastwest;fontColor=#5C5C5C;" vertex="1" parent="bEU1iKi3ngNgIoyV5gFX-11">
          <mxGeometry y="244" width="230" height="26" as="geometry" />
        </mxCell>
        <mxCell id="bEU1iKi3ngNgIoyV5gFX-20" style="edgeStyle=elbowEdgeStyle;html=1;labelBackgroundColor=none;startFill=0;startSize=8;endArrow=diamondThin;endFill=0;endSize=16;fontFamily=Verdana;fontSize=12;elbow=vertical;strokeColor=#006658;fontColor=#5C5C5C;" edge="1" parent="1">
          <mxGeometry relative="1" as="geometry">
            <mxPoint x="550" y="617" as="sourcePoint" />
            <mxPoint x="520" y="617" as="targetPoint" />
          </mxGeometry>
        </mxCell>
        <mxCell id="bEU1iKi3ngNgIoyV5gFX-21" style="edgeStyle=orthogonalEdgeStyle;rounded=0;orthogonalLoop=1;jettySize=auto;html=1;exitX=0.5;exitY=0;exitDx=0;exitDy=0;entryX=0.5;entryY=0;entryDx=0;entryDy=0;strokeColor=#006658;fontColor=#00CC00;fillColor=#21C0A5;" edge="1" parent="1" source="bEU1iKi3ngNgIoyV5gFX-22" target="bEU1iKi3ngNgIoyV5gFX-24">
          <mxGeometry relative="1" as="geometry" />
        </mxCell>
        <mxCell id="bEU1iKi3ngNgIoyV5gFX-22" value="MainScreen" style="html=1;fillColor=default;labelPosition=center;verticalLabelPosition=top;align=center;verticalAlign=bottom;strokeColor=#006658;fontColor=#5C5C5C;" vertex="1" parent="1">
          <mxGeometry x="-80" y="90" width="170" height="130" as="geometry" />
        </mxCell>
        <mxCell id="bEU1iKi3ngNgIoyV5gFX-23" style="edgeStyle=orthogonalEdgeStyle;rounded=0;orthogonalLoop=1;jettySize=auto;html=1;exitX=0.5;exitY=1;exitDx=0;exitDy=0;entryX=0.5;entryY=1;entryDx=0;entryDy=0;strokeColor=#006658;fontColor=#00CC00;fillColor=#21C0A5;" edge="1" parent="1" source="bEU1iKi3ngNgIoyV5gFX-24" target="bEU1iKi3ngNgIoyV5gFX-22">
          <mxGeometry relative="1" as="geometry" />
        </mxCell>
        <mxCell id="bEU1iKi3ngNgIoyV5gFX-24" value="&lt;font color=&quot;#0000ff&quot;&gt;GameFragmentScreen&lt;/font&gt;" style="html=1;fillColor=none;strokeColor=#006658;fontColor=#5C5C5C;" vertex="1" parent="1">
          <mxGeometry x="-45" y="125" width="100" height="60" as="geometry" />
        </mxCell>
        <mxCell id="bEU1iKi3ngNgIoyV5gFX-25" value="&lt;pre style=&quot;background-color:#ffffff;color:#000000;font-family:&#39;JetBrains Mono&#39;,monospace;font-size:9,8pt;&quot;&gt;л┐ЛђлЙл┐ЛЃЛЂЛѓлИЛѓЛї =&amp;gt;&lt;/pre&gt;&lt;pre style=&quot;background-color: rgb(255, 255, 255); font-family: &amp;quot;JetBrains Mono&amp;quot;, monospace;&quot;&gt;&lt;font color=&quot;#00cc00&quot;&gt;л┐лЙл║л░лил░ЛѓЛї л║лЙлйлхЛє&lt;/font&gt;&lt;span style=&quot;color: rgb(0, 0, 0);&quot;&gt;, &lt;/span&gt;&lt;font color=&quot;#ff0000&quot;&gt;лхЛЂл╗лИ ЛЂл╗лЙл▓ л▒лЙл╗ЛїЛѕлх лйлхЛѓ&lt;/font&gt;&lt;/pre&gt;&lt;pre style=&quot;background-color: rgb(255, 255, 255); font-family: &amp;quot;JetBrains Mono&amp;quot;, monospace;&quot;&gt;&lt;font color=&quot;#ff0000&quot;&gt;л┐лЙл║л░лил░ЛѓЛї ЛЂл╗лхл┤ЛЃЛјЛЅлхлх ЛЂл╗лЙл▓лЙ &lt;/font&gt;&lt;font color=&quot;#00cc00&quot;&gt;+ лЙл▒лйлЙл▓лИЛѓЛї Лѓлхл║ЛЂЛѓлЙл▓лЙлх л┐лЙл╗лх&lt;/font&gt;&lt;/pre&gt;&lt;pre style=&quot;background-color:#ffffff;color:#000000;font-family:&#39;JetBrains Mono&#39;,monospace;font-size:9,8pt;&quot;&gt;&lt;span style=&quot;color:#000080;font-weight:bold;&quot;&gt;if &lt;/span&gt;(&lt;span style=&quot;color:#660e7a;font-weight:bold;&quot;&gt;viewModel&lt;/span&gt;.nextWord()) {&lt;br&gt;    setErrorTextField(&lt;span style=&quot;color:#000080;font-weight:bold;&quot;&gt;false&lt;/span&gt;)&lt;br&gt;    updateNextWordOnScreen()&lt;br&gt;} &lt;span style=&quot;color:#000080;font-weight:bold;&quot;&gt;else &lt;/span&gt;{&lt;br&gt;    showFinalScoreDialog()&lt;br&gt;}&lt;/pre&gt;" style="rounded=1;whiteSpace=wrap;html=1;dashed=1;strokeColor=#006658;fontColor=#5C5C5C;fillColor=#21C0A5;" vertex="1" parent="1">
          <mxGeometry x="360" y="470" width="320" height="180" as="geometry" />
        </mxCell>
        <mxCell id="bEU1iKi3ngNgIoyV5gFX-26" value="&lt;pre style=&quot;background-color: rgb(255, 255, 255); font-family: &amp;quot;JetBrains Mono&amp;quot;, monospace;&quot;&gt;&lt;span style=&quot;color: rgb(0, 0, 0);&quot;&gt;ЛЂл╗лхл┤ЛЃЛјЛЅлхлх ЛЂл╗лЙл▓лЙ =&amp;gt; &lt;/span&gt;&lt;font color=&quot;#00cc00&quot;&gt;лйлхЛѓ лЙЛѕлИл▒л║лИ&lt;/font&gt;&lt;span style=&quot;color: rgb(0, 0, 0);&quot;&gt;, &lt;/span&gt;&lt;font color=&quot;#ff0000&quot;&gt;лхЛЂл╗лИ ЛЂл╗лЙл▓лЙ л┐Лђл░л▓лИл╗ЛїлйлЙлх&lt;/font&gt;&lt;/pre&gt;&lt;pre style=&quot;background-color: rgb(255, 255, 255); font-family: &amp;quot;JetBrains Mono&amp;quot;, monospace;&quot;&gt;&lt;b style=&quot;&quot;&gt;&lt;font color=&quot;#00cc00&quot;&gt;л┐лЙл║л░лил░ЛѓЛї л║лЙлйлхЛє&lt;/font&gt;&lt;font color=&quot;#000080&quot;&gt;, &lt;/font&gt;&lt;font color=&quot;#ff0000&quot;&gt;лхЛЂл╗лИ ЛЂл╗лЙл▓ л▒лЙл╗ЛїЛѕлх лйлхЛѓ&lt;/font&gt;&lt;/b&gt;&lt;/pre&gt;&lt;pre style=&quot;background-color: rgb(255, 255, 255); font-family: &amp;quot;JetBrains Mono&amp;quot;, monospace;&quot;&gt;&lt;b style=&quot;&quot;&gt;&lt;font color=&quot;#ff0000&quot;&gt;л┐лЙл║л░лил░ЛѓЛї ЛЂл╗лхл┤ЛЃЛјЛЅлхлх ЛЂл╗лЙл▓лЙ &lt;/font&gt;&lt;/b&gt;&lt;font color=&quot;#00cc00&quot;&gt;+ лЙл▒лйлЙл▓лИЛѓЛї Лѓлхл║ЛЂЛѓлЙл▓лЙлх л┐лЙл╗лх&lt;/font&gt;&lt;/pre&gt;&lt;pre style=&quot;background-color:#ffffff;color:#000000;font-family:&#39;JetBrains Mono&#39;,monospace;font-size:9,8pt;&quot;&gt;&lt;span style=&quot;color:#000080;font-weight:bold;&quot;&gt;val &lt;/span&gt;playerWord = &lt;span style=&quot;color:#660e7a;font-weight:bold;&quot;&gt;binding&lt;/span&gt;.&lt;span style=&quot;color:#660e7a;font-weight:bold;&quot;&gt;textInputEditText&lt;/span&gt;.&lt;span style=&quot;color:#660e7a;font-style:italic;&quot;&gt;text&lt;/span&gt;.&lt;span style=&quot;font-style:italic;&quot;&gt;toString&lt;/span&gt;()&lt;br&gt;&lt;br&gt;&lt;span style=&quot;color:#000080;font-weight:bold;&quot;&gt;if &lt;/span&gt;(&lt;span style=&quot;color:#660e7a;font-weight:bold;&quot;&gt;viewModel&lt;/span&gt;.isUserWordCorrect(playerWord)) {&lt;br&gt;    setErrorTextField(&lt;span style=&quot;color:#000080;font-weight:bold;&quot;&gt;false&lt;/span&gt;)&lt;br&gt;    &lt;span style=&quot;color:#000080;font-weight:bold;&quot;&gt;if &lt;/span&gt;(&lt;span style=&quot;color:#660e7a;font-weight:bold;&quot;&gt;viewModel&lt;/span&gt;.nextWord()) {&lt;br&gt;        updateNextWordOnScreen()&lt;br&gt;    } &lt;span style=&quot;color:#000080;font-weight:bold;&quot;&gt;else &lt;/span&gt;{&lt;br&gt;        showFinalScoreDialog()&lt;br&gt;    }&lt;br&gt;} &lt;span style=&quot;color:#000080;font-weight:bold;&quot;&gt;else &lt;/span&gt;{&lt;br&gt;    setErrorTextField(&lt;span style=&quot;color:#000080;font-weight:bold;&quot;&gt;true&lt;/span&gt;)&lt;br&gt;}&lt;/pre&gt;" style="rounded=1;whiteSpace=wrap;html=1;dashed=1;strokeColor=#006658;fontColor=#5C5C5C;fillColor=#21C0A5;" vertex="1" parent="1">
          <mxGeometry x="700" y="390" width="390" height="320" as="geometry" />
        </mxCell>
        <mxCell id="bEU1iKi3ngNgIoyV5gFX-27" value="" style="shape=flexArrow;endArrow=classic;html=1;rounded=0;strokeColor=#006658;fontColor=#5C5C5C;fillColor=#21C0A5;entryX=0.5;entryY=0;entryDx=0;entryDy=0;" edge="1" parent="1" source="bEU1iKi3ngNgIoyV5gFX-10" target="bEU1iKi3ngNgIoyV5gFX-26">
          <mxGeometry width="50" height="50" relative="1" as="geometry">
            <mxPoint x="810" y="380" as="sourcePoint" />
            <mxPoint x="900" y="450" as="targetPoint" />
          </mxGeometry>
        </mxCell>
        <mxCell id="bEU1iKi3ngNgIoyV5gFX-28" value="" style="shape=flexArrow;endArrow=classic;html=1;rounded=0;strokeColor=#006658;fontColor=#5C5C5C;fillColor=#21C0A5;exitX=0.236;exitY=1.008;exitDx=0;exitDy=0;exitPerimeter=0;entryX=0.469;entryY=0;entryDx=0;entryDy=0;entryPerimeter=0;" edge="1" parent="1" source="bEU1iKi3ngNgIoyV5gFX-10" target="bEU1iKi3ngNgIoyV5gFX-25">
          <mxGeometry width="50" height="50" relative="1" as="geometry">
            <mxPoint x="680" y="350" as="sourcePoint" />
            <mxPoint x="730" y="300" as="targetPoint" />
          </mxGeometry>
        </mxCell>
      </root>
    </mxGraphModel>
  </diagram>
</mxfile>
